<svg version="1.1" id="layer" xmlns="http://www.w3.org/2000/svg" xmlns:xlink="http://www.w3.org/1999/xlink" x="0px" y="0px"
	 viewBox="0 0 652 652" style="enable-background:new 0 0 652 652;" xml:space="preserve">
<style type="text/css">
	.st0{clip-path:url(#SVGID_4_);}
	.st1{clip-path:url(#SVGID_6_);fill:#2BBDF7;}
	.st2{clip-path:url(#SVGID_8_);}
	.st3{clip-path:url(#SVGID_10_);fill:#2891F9;}
	.st4{clip-path:url(#SVGID_12_);}
	.st5{clip-path:url(#SVGID_14_);fill:#2BBDF7;}
	.st6{clip-path:url(#SVGID_16_);}
	.st7{clip-path:url(#SVGID_18_);fill:#2B6DEF;}
	.st8{clip-path:url(#SVGID_20_);}
	.st9{clip-path:url(#SVGID_22_);fill:#2891F9;}
	.st10{clip-path:url(#SVGID_24_);}
	.st11{clip-path:url(#SVGID_26_);fill:#2B6DEF;}
	.st12{clip-path:url(#SVGID_28_);}
	.st13{clip-path:url(#SVGID_30_);fill:#2BBDF7;}
</style>
<g>
	<defs>
		<path id="SVGID_1_" d="M360,296.8h17.6v91.7h-16.4v-62.9l-27,45.1h-8.3l-27-45.3v63.1h-16.3v-91.7H300l29.9,50.1L360,296.8z
			 M578.2,379.5c-7-7.1-10.9-16.8-10.6-26.8c-0.3-10.1,3.6-19.8,10.6-26.8c7.1-7.2,16.7-11.1,26.7-10.9c13.1-0.3,25.3,6.8,31.6,18.5
			l-13.1,7.7c-3.4-7.1-10.7-11.6-18.6-11.2c-5.9-0.2-11.6,2.2-15.8,6.4c-4.1,4.3-6.3,10.1-6.2,16c-0.1,6,2.1,11.8,6.2,16.1
			c4.2,4.2,9.9,6.5,15.8,6.4c7.9,0.2,15.2-4.1,18.8-11.2l13.2,7.6c-6.4,11.7-18.6,18.9-31.8,18.7C595,390.2,585.4,386.5,578.2,379.5
			z M538.5,388.6v-71.8h15.3v71.7L538.5,388.6z M539.2,303.3c-1.9-1.8-2.9-4.3-2.9-6.9c0-2.6,1-5.1,2.9-6.9c1.8-1.9,4.3-3,6.9-3
			c2.6,0,5.1,1.1,6.9,3c3.8,3.9,3.8,10.1-0.1,14C549.2,307.2,543,307.2,539.2,303.3z M524.6,331.7H507v34.4c0,9.1,5.9,9,17.6,8.4v14
			c-23.4,2.9-32.8-3.6-32.8-22.4v-34.4h-13.1v-14.9h13.1v-20h15.3v20h17.6L524.6,331.7z M427.9,375.6c6,0.1,11.7-2.2,16-6.4
			c4.3-4.4,6.6-10.4,6.4-16.5c0.1-6.1-2.2-12-6.4-16.3c-8.9-8.8-23.1-8.8-32,0c-4.3,4.3-6.6,10.2-6.4,16.3
			c-0.2,6.2,2.1,12.1,6.4,16.5c4.2,4.2,9.8,6.5,15.7,6.4H427.9z M450,316.8h15.3v71.7H450v-10.3c-5.7,8-15,12.6-24.7,12.2
			c-9.5,0.1-18.5-3.8-24.9-10.9c-6.8-7.2-10.5-16.9-10.3-26.8c-0.3-10,3.4-19.6,10.2-26.8c6.4-7.1,15.5-11,25-10.8
			c9.8-0.5,19.1,4,24.8,12L450,316.8z"/>
	</defs>
	<use xlink:href="#SVGID_1_"  style="overflow:visible;fill:#0A1647;"/>
	<clipPath id="SVGID_2_">
		<use xlink:href="#SVGID_1_"  style="overflow:visible;"/>
	</clipPath>
</g>
<g>
	<defs>
		<polygon id="SVGID_3_" points="101.3,322.8 126.8,378.7 164.6,357.1 164.6,357.1 164.6,313.7 		"/>
	</defs>
	<clipPath id="SVGID_4_">
		<use xlink:href="#SVGID_3_"  style="overflow:visible;"/>
	</clipPath>
	<g class="st0">
		<defs>
			<rect id="SVGID_5_" x="-1082.9" y="31.3" width="2811" height="8395.3"/>
		</defs>
		<clipPath id="SVGID_6_">
			<use xlink:href="#SVGID_5_"  style="overflow:visible;"/>
		</clipPath>
		<rect x="77.7" y="290.1" class="st1" width="110.6" height="112.3"/>
	</g>
</g>
<g>
	<defs>
		<polygon id="SVGID_7_" points="213.5,281.2 189.9,272.4 164.6,270.3 164.6,313.7 164.6,405.5 202.5,427.2 232.7,366.1
			213.5,307.3 		"/>
	</defs>
	<clipPath id="SVGID_8_">
		<use xlink:href="#SVGID_7_"  style="overflow:visible;"/>
	</clipPath>
	<g class="st2">
		<defs>
			<rect id="SVGID_9_" x="-1082.9" y="31.3" width="2811" height="8395.3"/>
		</defs>
		<clipPath id="SVGID_10_">
			<use xlink:href="#SVGID_9_"  style="overflow:visible;"/>
		</clipPath>
		<rect x="141" y="246.7" class="st3" width="115.3" height="204.1"/>
	</g>
</g>
<g>
	<defs>
		<polygon id="SVGID_11_" points="211.3,270.3 202.5,292 202.5,426.8 240.4,405.1 240.4,270.3 		"/>
	</defs>
	<clipPath id="SVGID_12_">
		<use xlink:href="#SVGID_11_"  style="overflow:visible;"/>
	</clipPath>
	<g class="st4">
		<defs>
			<rect id="SVGID_13_" x="-1082.9" y="31.3" width="2811" height="8395.3"/>
		</defs>
		<clipPath id="SVGID_14_">
			<use xlink:href="#SVGID_13_"  style="overflow:visible;"/>
		</clipPath>
		<rect x="178.9" y="246.7" class="st5" width="85.1" height="203.8"/>
	</g>
</g>
<g>
	<defs>
		<polygon id="SVGID_15_" points="202.5,248.6 164.6,270.3 202.5,292 240.4,270.3 		"/>
	</defs>
	<clipPath id="SVGID_16_">
		<use xlink:href="#SVGID_15_"  style="overflow:visible;"/>
	</clipPath>
	<g class="st6">
		<defs>
			<rect id="SVGID_17_" x="-1082.9" y="31.3" width="2811" height="8395.3"/>
		</defs>
		<clipPath id="SVGID_18_">
			<use xlink:href="#SVGID_17_"  style="overflow:visible;"/>
		</clipPath>
		<rect x="141" y="225" class="st7" width="123" height="90.6"/>
	</g>
</g>
<g>
	<defs>
		<polygon id="SVGID_19_" points="126.8,335.4 88.9,293.2 13.2,270.3 13.2,405.1 51.1,426.8 61.9,352.2 88.9,357.1 126.8,378.7
			"/>
	</defs>
	<clipPath id="SVGID_20_">
		<use xlink:href="#SVGID_19_"  style="overflow:visible;"/>
	</clipPath>
	<g class="st8">
		<defs>
			<rect id="SVGID_21_" x="-1082.9" y="31.3" width="2811" height="8395.3"/>
		</defs>
		<clipPath id="SVGID_22_">
			<use xlink:href="#SVGID_21_"  style="overflow:visible;"/>
		</clipPath>
		<rect x="-10.4" y="246.7" class="st9" width="160.8" height="203.8"/>
	</g>
</g>
<g>
	<defs>
		<polygon id="SVGID_23_" points="51.1,248.6 13.2,270.3 126.8,335.4 143.9,325.6 164.6,313.7 		"/>
	</defs>
	<clipPath id="SVGID_24_">
		<use xlink:href="#SVGID_23_"  style="overflow:visible;"/>
	</clipPath>
	<g class="st10">
		<defs>
			<rect id="SVGID_25_" x="-1082.9" y="31.3" width="2811" height="8395.3"/>
		</defs>
		<clipPath id="SVGID_26_">
			<use xlink:href="#SVGID_25_"  style="overflow:visible;"/>
		</clipPath>
		<rect x="-10.4" y="225" class="st11" width="198.7" height="134"/>
	</g>
</g>
<g>
	<defs>
		<polygon id="SVGID_27_" points="51.1,335.4 51.1,426.8 88.9,405.1 88.9,357.1 		"/>
	</defs>
	<clipPath id="SVGID_28_">
		<use xlink:href="#SVGID_27_"  style="overflow:visible;"/>
	</clipPath>
	<g class="st12">
		<defs>
			<rect id="SVGID_29_" x="-1082.9" y="31.3" width="2811" height="8395.3"/>
		</defs>
		<clipPath id="SVGID_30_">
			<use xlink:href="#SVGID_29_"  style="overflow:visible;"/>
		</clipPath>
		<rect x="27.4" y="311.7" class="st13" width="85.1" height="138.7"/>
	</g>
</g>
</svg>
